<?xml version="1.0" encoding="UTF-8"?>
<svg xmlns="http://www.w3.org/2000/svg" xmlns:xlink="http://www.w3.org/1999/xlink" viewBox="0 0 48 48" width="48px" height="48px">
<g id="surface76765">
<path style=" stroke:none;fill-rule:nonzero;fill:rgb(94.509804%,76.862746%,5.882353%);fill-opacity:1;" d="M 23.964844 1.011719 C 23.761719 1.019531 23.570312 1.089844 23.410156 1.214844 L 1.328125 18.441406 C 0.910156 18.769531 0.835938 19.371094 1.164062 19.789062 C 1.488281 20.210938 2.09375 20.285156 2.511719 19.957031 L 3.839844 18.921875 L 3.839844 44.160156 C 3.839844 44.691406 4.269531 45.121094 4.800781 45.121094 L 18.078125 45.121094 C 18.183594 45.136719 18.289062 45.136719 18.390625 45.121094 L 29.597656 45.121094 C 29.703125 45.136719 29.808594 45.136719 29.910156 45.121094 L 43.199219 45.121094 C 43.730469 45.121094 44.160156 44.691406 44.160156 44.160156 L 44.160156 18.921875 L 45.488281 19.957031 C 45.761719 20.167969 46.121094 20.21875 46.441406 20.089844 C 46.757812 19.960938 46.984375 19.671875 47.03125 19.332031 C 47.078125 18.992188 46.941406 18.652344 46.671875 18.441406 L 39.359375 12.738281 L 39.359375 5.761719 L 33.601562 5.761719 L 33.601562 8.242188 L 24.589844 1.214844 C 24.410156 1.074219 24.191406 1.003906 23.964844 1.011719 Z M 24 3.1875 L 42.238281 17.421875 L 42.238281 43.199219 L 30.71875 43.199219 L 30.71875 24.960938 L 17.28125 24.960938 L 17.28125 43.199219 L 5.761719 43.199219 L 5.761719 17.421875 Z M 35.519531 7.679688 L 37.441406 7.679688 L 37.441406 11.242188 L 35.519531 9.742188 Z M 19.199219 26.878906 L 28.800781 26.878906 L 28.800781 43.199219 L 19.199219 43.199219 Z M 19.199219 26.878906 "/>
</g>
</svg>
