<?xml version="1.0" encoding="UTF-8" standalone="no" ?>
<!DOCTYPE svg PUBLIC "-//W3C//DTD SVG 1.1//EN" "http://www.w3.org/Graphics/SVG/1.1/DTD/svg11.dtd">
<svg xmlns="http://www.w3.org/2000/svg" xmlns:xlink="http://www.w3.org/1999/xlink" version="1.1" width="400" height="400" viewBox="0 0 400 400" xml:space="preserve">
<desc>Created with Fabric.js 3.6.2</desc>
<defs>
</defs>
<g transform="matrix(0.33 0 0 0.33 200 200)" id="path1404"  >
<path style="stroke: rgb(255,255,255); stroke-width: 3.40799999; stroke-dasharray: none; stroke-linecap: butt; stroke-dashoffset: 0; stroke-linejoin: miter; stroke-miterlimit: 4; fill: none; fill-rule: nonzero; opacity: 1;"  transform=" translate(-364.51, -321.6)" d="M 140.865 32.943 C 99.53 32.943 76.294 54.314 76.294 97.979 L 76.294 548.101 C 76.294 588.944 97.185 610.329 138.486 610.329 L 590.51 610.329 C 631.813 610.329 652.736 590.009 652.736 548.101 L 652.736 97.979 C 652.736 55.379 631.813 32.943 589.213 32.943 C 589.213 32.943 140.722 32.801 140.865 32.943 z" stroke-linecap="round" />
</g>
<g transform="matrix(0.33 0 0 0.33 200.16 196.56)" id="path1408"  >
<path style="stroke: rgb(255,255,255); stroke-width: 30.65500069; stroke-dasharray: none; stroke-linecap: butt; stroke-dashoffset: 0; stroke-linejoin: miter; stroke-miterlimit: 4; fill: rgb(255,193,7); fill-rule: nonzero; opacity: 1;"  transform=" translate(-365.01, -311.06)" d="M 569.372 461.472 L 569.372 160.658 L 160.658 160.658 L 160.658 461.472 L 569.372 461.472 z" stroke-linecap="round" />
</g>
<g transform="matrix(0.33 0 0 0.33 80.88 94.9)" id="path1410"  >
<path style="stroke: rgb(255,255,255); stroke-width: 30.65500069; stroke-dasharray: none; stroke-linecap: butt; stroke-dashoffset: 0; stroke-linejoin: miter; stroke-miterlimit: 4; fill: none; fill-rule: nonzero; opacity: 1;"  transform=" translate(0, 0)" d="" stroke-linecap="round" />
</g>
<g transform="matrix(0.33 0 0 0.33 200.33 179.46)" id="path1412"  >
<path style="stroke: rgb(255,255,255); stroke-width: 30.65500069; stroke-dasharray: none; stroke-linecap: butt; stroke-dashoffset: 0; stroke-linejoin: miter; stroke-miterlimit: 4; fill: rgb(255,193,7); fill-rule: nonzero; opacity: 1;"  transform=" translate(-365.54, -258.74)" d="M 164.46 164.49 L 340.78 343.158 C 353.849 356.328 377.628 356.172 390.421 343.278 L 566.62 165.928" stroke-linecap="round" />
</g>
<g transform="matrix(0.33 0 0 0.33 158.68 219.9)" id="path1414"  >
<path style="stroke: rgb(255,255,255); stroke-width: 30.65500069; stroke-dasharray: none; stroke-linecap: butt; stroke-dashoffset: 0; stroke-linejoin: miter; stroke-miterlimit: 4; fill: none; fill-rule: nonzero; opacity: 1;"  transform=" translate(-238.06, -382.51)" d="M 170.514 451.566 L 305.609 313.46" stroke-linecap="round" />
</g>
<g transform="matrix(0.33 0 0 0.33 241.74 219.96)" id="path1416"  >
<path style="stroke: rgb(255,255,255); stroke-width: 30.65500069; stroke-dasharray: none; stroke-linecap: butt; stroke-dashoffset: 0; stroke-linejoin: miter; stroke-miterlimit: 4; fill: none; fill-rule: nonzero; opacity: 1;"  transform=" translate(-492.24, -382.67)" d="M 557.966 449.974 L 426.514 315.375" stroke-linecap="round" />
</g>
</svg>