<svg width="96" height="96" fill="none" xmlns="http://www.w3.org/2000/svg"><path d="M63.272 11.002a38.131 38.131 0 00-24.99-9.283 38.134 38.134 0 00-24.992 9.283h49.982z" fill="#00C82F"/><path d="M16.085 68.04l.372 3.41a38.099 38.099 0 0021.824 6.831c10.067 0 19.224-3.888 26.059-10.24H16.085z" fill="#2B3894"/><path d="M41.4 78.154c8.833-.713 16.818-4.423 22.94-10.114H41.194c4.129 1.785 4.283 8.188.206 10.114z" fill="#232E7A"/><path d="M69.445 10.69H13.66a38.575 38.575 0 00-3.477 3.318l5.61 51.36H73.19V14.435a3.757 3.757 0 00-3.746-3.746z" fill="#2B3894"/><path d="M15.458 12.408c0-.762.451-1.414 1.089-1.719H13.66a38.575 38.575 0 00-3.477 3.32l.007.063h6.249a1.906 1.906 0 01-.98-1.664z" fill="#232E7A"/><path d="M70.025 61.403V25.916H2.675A38.174 38.174 0 000 40a38.135 38.135 0 009.615 25.368h57.333a38.447 38.447 0 003.077-3.965z" fill="#E6F7FE"/><path d="M16.102 25.916H2.675A38.174 38.174 0 000 40a38.135 38.135 0 009.615 25.368h6.487V25.916z" fill="#D5F1FE"/><path d="M69.388 13.854H10.323a38.367 38.367 0 00-5.916 8.304h65.618v-7.666a.637.637 0 00-.637-.638z" fill="#615DF9"/><path d="M16.102 13.854h-5.78a38.367 38.367 0 00-5.915 8.304h11.695v-8.304z" fill="#3D4EC6"/><path d="M10.114 19.394a1.583 1.583 0 111.583-1.583c0 .887-.725 1.583-1.584 1.583z" fill="#39DF74"/><path d="M65.042 19.072h-8.336a1.187 1.187 0 010-2.374h8.336a1.187 1.187 0 010 2.374zm-14.299 0H16.388a1.187 1.187 0 010-2.374h34.355a1.187 1.187 0 010 2.374z" fill="#AEAEFF"/><path d="M42.912 17.885c0-.655.532-1.187 1.187-1.187H16.39a1.187 1.187 0 000 2.374H44.1a1.187 1.187 0 01-1.187-1.187z" fill="#8181FC"/><path d="M9.334 65.051a38.517 38.517 0 007.292 6.518h43.31a38.517 38.517 0 007.292-6.518H9.334z" fill="#AEAEFF"/><path d="M25.587 69.94c0-.924.702-1.684 1.602-1.776V65.05H9.334a38.493 38.493 0 007.292 6.518h10.019a1.783 1.783 0 01-1.058-1.63z" fill="#8181FC"/><path d="M17.567 65.051v1.36c0 1.044.855 1.9 1.9 1.9h25.637c1.045 0 1.9-.856 1.9-1.9v-1.36H17.566z" fill="#8181FC"/><path d="M25.011 66.411v-1.36h-7.444v1.36c0 1.044.855 1.899 1.9 1.899h7.443a1.905 1.905 0 01-1.899-1.899z" fill="#615DF9"/><path d="M2.553 26.233h67.472V21.84H4.573a38.116 38.116 0 00-2.02 4.392z" fill="#D5F1FE"/><path d="M16.102 21.841H4.573a38.07 38.07 0 00-2.02 4.392h13.55V21.84z" fill="#11DFEF"/><path d="M10.114 26.233a4.391 4.391 0 00-4.39-4.392h-1.15a38.017 38.017 0 00-2.02 4.392h7.56z" fill="#0AC6E5"/><path d="M76.192 25.06h-21.64a3.813 3.813 0 00-3.809 3.808v45.605c0 2.1 1.709 3.808 3.808 3.808h21.641c2.1 0 3.808-1.708 3.808-3.808V28.868c0-2.1-1.708-3.809-3.808-3.809z" fill="#3D4EC6"/><path d="M58.69 75.95V29.862c0-.837-.302-1.632-.788-2.314a1.668 1.668 0 01.677-2.488h-4.027a3.808 3.808 0 00-3.809 3.808v45.605a3.808 3.808 0 003.808 3.808h3.612a1.319 1.319 0 01.527-2.33z" fill="#3342AE"/><path d="M77.795 28.868c0-.886-.717-1.604-1.603-1.604h-3.216a.55.55 0 00-.55.55c0 .727-.595 1.322-1.323 1.322H59.64a1.326 1.326 0 01-1.322-1.323.55.55 0 00-.55-.55h-3.216c-.885 0-1.603.72-1.603 1.605v45.605c0 .886.718 1.604 1.603 1.604h21.641c.886 0 1.603-.718 1.603-1.604V28.868z" fill="#E6F7FE"/><path d="M58.316 27.807a.549.549 0 00-.548-.543H54.55c-.885 0-1.603.718-1.603 1.604v45.605c0 .886.718 1.604 1.603 1.604h3.765v-48.27z" fill="#86FDFB"/><path d="M59.555 34.186h-2.529a1.187 1.187 0 010-2.374h2.53a1.187 1.187 0 010 2.374z" fill="#11DFEF"/><path d="M63.367 56.583H60.84a1.187 1.187 0 010-2.374h2.528a1.187 1.187 0 010 2.374z" fill="#39DF74"/><path d="M69.905 56.583h-2.529a1.187 1.187 0 010-2.374h2.529a1.187 1.187 0 010 2.374z" fill="#27A3FF"/><path d="M29.769 56.03h-3.175a1.583 1.583 0 010-3.166h3.175a1.583 1.583 0 010 3.165z" fill="#39DF74"/><path d="M37.977 56.03h-3.175a1.583 1.583 0 010-3.166h3.175a1.583 1.583 0 010 3.165z" fill="#27A3FF"/><path d="M73.675 48.702V45.96a.799.799 0 00-.798-.799h-15.01a.799.799 0 00-.8.798v2.743c0 .44.358.797.8.797h15.01c.44 0 .799-.357.799-.797z" fill="#86FDFB"/><path d="M63.078 48.702V45.96c0-.441.357-.799.798-.799h-6.01a.799.799 0 00-.798.798v2.743c0 .44.358.797.798.797h6.01a.798.798 0 01-.798-.797z" fill="#11DFEF"/><path d="M48.468 48.702V45.96a.798.798 0 00-.798-.799H16.9a.799.799 0 00-.798.798v2.743c0 .44.358.797.798.797h30.77a.797.797 0 00.798-.797z" fill="#D5F1FE"/><path d="M25.011 48.702V45.96a.8.8 0 01.798-.799H16.9a.798.798 0 00-.798.798v2.743c0 .44.357.797.798.797h8.91a.798.798 0 01-.799-.797z" fill="#11DFEF"/><path d="M72.877 45.161h-3.79V49.5h3.79c.44 0 .798-.357.798-.797V45.96a.798.798 0 00-.798-.799zm-25.207 0h-3.79V49.5h3.79a.797.797 0 00.798-.797V45.96a.798.798 0 00-.798-.799z" fill="#27A3FF"/></svg>