<svg width="96" height="96" fill="none" xmlns="http://www.w3.org/2000/svg"><g clip-path="url(#clip0)"><path d="M2.286 28.127s-1.893-1.368.38-3.193l5.294-4.742s1.515-1.596 3.117-.206l48.859 37.05V74.8s-.024 2.79-3.598 2.481L2.286 28.127z" fill="#2489CA"/><path d="M14.88 39.578L2.286 51.045s-1.294.964 0 2.687l5.847 5.326s1.39 1.494 3.44-.205l13.352-10.14-10.045-9.135z" fill="#1070B3"/><path d="M36.99 39.673L60.086 22.01l-.15-17.671s-.986-3.857-4.277-1.85L24.925 30.505l12.065 9.168z" fill="#0877B9"/><path d="M56.338 77.306c1.341 1.375 2.967.925 2.967.925l17.998-8.883c2.305-1.573 1.981-3.525 1.981-3.525V12.78c0-2.331-2.383-3.137-2.383-3.137l-15.6-7.532c-3.409-2.11-5.642.38-5.642.38S58.531.42 59.936 4.34v70.138c0 .482-.103.956-.308 1.383-.41.83-1.302 1.604-3.44 1.28l.15.166z" fill="#3C99D4"/></g><defs><clipPath id="clip0"><path fill="#fff" d="M0 0h80v78.681H0z"/></clipPath></defs></svg>